<svg xmlns="http://www.w3.org/2000/svg" width="32" height="32" viewBox="0 0 32 32">
  <!-- Outer glow -->
  <circle cx="16" cy="16" r="15" fill="#1a1a1a" />
  
  <!-- Portal spiral effect -->
  <path d="M16 1C7.716 1 1 7.716 1 16c0 8.284 6.716 15 15 15 8.284 0 15-6.716 15-15 0-8.284-6.716-15-15-15zm0 2c7.18 0 13 5.82 13 13S23.18 29 16 29 3 23.18 3 16 8.82 3 16 3z" fill="#4ADE80"/>
  
  <!-- Inner spiral -->
  <path d="M16 5c-6.075 0-11 4.925-11 11s4.925 11 11 11 11-4.925 11-11S22.075 5 16 5zm0 2c4.97 0 9 4.03 9 9s-4.03 9-9 9-9-4.03-9-9 4.03-9 9-9z" fill="#22C55E"/>
  
  <!-- Center -->
  <circle cx="16" cy="16" r="6" fill="#86EFAC"/>
  
  <!-- Inner glow -->
  <circle cx="16" cy="16" r="4" fill="#BBF7D0"/>
</svg> 